<svg width="51" height="51" viewBox="0 0 51 51" fill="none" xmlns="http://www.w3.org/2000/svg">
<g id="Frame">
<g id="Group">
<path id="Vector" d="M37.8867 25.4999C32.2014 25.4999 27.5581 21.1095 26.9369 15.4999H8.19141C6.15588 15.4999 4.5 17.1821 4.5 19.2499V41.7499C4.5 43.8178 6.15588 45.4999 8.19141 45.4999H40.3477C42.3832 45.4999 44.0391 43.8178 44.0391 41.7499V23.5955C42.2778 24.7959 40.1624 25.4999 37.8867 25.4999ZM32.9648 27.9999C33.6444 27.9999 34.1953 28.5596 34.1953 29.2499C34.1953 29.9403 33.6444 30.4999 32.9648 30.4999C32.2853 30.4999 31.7344 29.9403 31.7344 29.2499C31.7344 28.5596 32.2853 27.9999 32.9648 27.9999ZM28.043 27.9999C28.7225 27.9999 29.2734 28.5596 29.2734 29.2499C29.2734 29.9403 28.7225 30.4999 28.043 30.4999C27.3634 30.4999 26.8125 29.9403 26.8125 29.2499C26.8125 28.5596 27.3634 27.9999 28.043 27.9999ZM21.7266 39.2499C21.7266 39.9409 21.1762 40.4999 20.4961 40.4999H10.6523C9.97222 40.4999 9.42188 39.9409 9.42188 39.2499V36.7499C9.42188 34.5962 10.4998 32.6933 12.1368 31.5689C11.2233 30.6606 10.6523 29.3984 10.6523 27.9999C10.6523 25.2424 12.8597 22.9999 15.5742 22.9999C18.2887 22.9999 20.4961 25.2424 20.4961 27.9999C20.4961 29.3984 19.9252 30.6606 19.0117 31.5689C20.6486 32.6933 21.7266 34.5962 21.7266 36.7499V39.2499ZM37.8867 40.4999H28.043C27.3628 40.4999 26.8125 39.9409 26.8125 39.2499C26.8125 38.559 27.3628 37.9999 28.043 37.9999H37.8867C38.5668 37.9999 39.1172 38.559 39.1172 39.2499C39.1172 39.9409 38.5668 40.4999 37.8867 40.4999ZM37.8867 35.4999H28.043C27.3628 35.4999 26.8125 34.9409 26.8125 34.2499C26.8125 33.559 27.3628 32.9999 28.043 32.9999H37.8867C38.5668 32.9999 39.1172 33.559 39.1172 34.2499C39.1172 34.9409 38.5668 35.4999 37.8867 35.4999ZM37.8867 30.4999C37.2072 30.4999 36.6562 29.9403 36.6562 29.2499C36.6562 28.5596 37.2072 27.9999 37.8867 27.9999C38.5663 27.9999 39.1172 28.5596 39.1172 29.2499C39.1172 29.9403 38.5663 30.4999 37.8867 30.4999Z" fill="#07AB35"/>
<path id="Vector_2" d="M15.5742 25.5C14.2176 25.5 13.1133 26.6218 13.1133 28C13.1133 29.3782 14.2176 30.5 15.5742 30.5C16.9309 30.5 18.0352 29.3782 18.0352 28C18.0352 26.6218 16.9309 25.5 15.5742 25.5ZM15.5742 33C13.5387 33 11.8828 34.6822 11.8828 36.75V38H19.2656V36.75C19.2656 34.6822 17.6097 33 15.5742 33ZM37.8047 5.5C33.0558 5.5 29.2734 9.42575 29.2734 14.25C29.2734 19.0742 33.1378 23 37.8867 23C42.6356 23 46.5 19.0742 46.5 14.25C46.5 9.42575 42.5536 5.5 37.8047 5.5ZM42.4481 12.6337L37.5262 17.6337C37.0456 18.122 36.2668 18.122 35.7862 17.6337L33.3253 15.1337C32.8447 14.6455 32.8447 13.8544 33.3253 13.3662C33.8059 12.8779 34.5846 12.8779 35.0653 13.3662L36.6562 14.9824L40.7082 10.8662C41.1888 10.3779 41.9675 10.3779 42.4481 10.8662C42.9288 11.3544 42.9288 12.1455 42.4481 12.6337Z" fill="#07AB35"/>
</g>
</g>
</svg>
