<svg width="24" height="24" viewBox="0 0 24 24" fill="none" xmlns="http://www.w3.org/2000/svg">
<g clip-path="url(#clip0_9_13856)">
<path d="M11.172 4.28572C11.172 1.92257 9.24944 0 6.8863 0C4.52316 0 2.60059 1.92257 2.60059 4.28572C2.60059 6.64886 4.52316 8.57143 6.8863 8.57143C9.24944 8.57143 11.172 6.64886 11.172 4.28572ZM23.568 12.1131L17.568 8.68457C17.4385 8.61061 17.292 8.57171 17.1429 8.57171C16.9938 8.57171 16.8472 8.61061 16.7177 8.68457L10.7177 12.1131C10.5865 12.1881 10.4775 12.2964 10.4016 12.427C10.3258 12.5577 10.2858 12.7061 10.2857 12.8571C10.2857 16.7006 11.9914 20.1026 15.2152 22.6937L16.6054 23.8106C16.7577 23.9333 16.9473 24.0002 17.1429 24.0002C17.3384 24.0002 17.5281 23.9333 17.6803 23.8106L19.0697 22.6937C22.2952 20.1026 24 16.7006 24 12.8571C24 12.7061 23.96 12.5577 23.8841 12.427C23.8083 12.2964 23.6992 12.1881 23.568 12.1131ZM20.4 14.2286L17.8286 17.6571C17.7552 17.7557 17.6613 17.8373 17.5535 17.8963C17.4457 17.9553 17.3264 17.9904 17.2038 17.9991C17.0811 18.0078 16.9581 17.99 16.843 17.9468C16.7279 17.9036 16.6235 17.8361 16.5369 17.7489L14.8226 16.0346C14.7407 15.9555 14.6754 15.8609 14.6305 15.7563C14.5856 15.6518 14.5619 15.5393 14.5609 15.4255C14.56 15.3117 14.5816 15.1988 14.6247 15.0935C14.6678 14.9881 14.7315 14.8924 14.812 14.8119C14.8924 14.7315 14.9881 14.6678 15.0935 14.6247C15.1988 14.5816 15.3117 14.5599 15.4255 14.5609C15.5393 14.5619 15.6518 14.5856 15.7564 14.6305C15.8609 14.6754 15.9555 14.7407 16.0346 14.8226L17.0503 15.8383L19.0286 13.2C19.0961 13.11 19.1807 13.0341 19.2776 12.9767C19.3745 12.9194 19.4817 12.8817 19.5931 12.8658C19.7045 12.8498 19.818 12.856 19.927 12.884C20.0361 12.9119 20.1385 12.961 20.2286 13.0286C20.3186 13.0961 20.3945 13.1807 20.4519 13.2776C20.5092 13.3744 20.5469 13.4816 20.5628 13.5931C20.5788 13.7045 20.5726 13.818 20.5446 13.927C20.5167 14.0361 20.4676 14.1385 20.4 14.2286Z" fill="white"/>
<path d="M10.2934 11.3692L12.63 10.0329C11.844 9.14404 10.7066 8.57147 9.426 8.57147H4.28829C1.92343 8.57147 0 10.4872 0 12.8426V18.8572C0 19.0845 0.0903058 19.3025 0.251051 19.4633C0.411797 19.624 0.629814 19.7143 0.857143 19.7143H11.3957C10.0991 17.6631 9.41656 15.2838 9.42857 12.8572C9.42857 12.2426 9.76029 11.6726 10.2934 11.3692Z" fill="white"/>
</g>
<defs>
<clipPath id="clip0_9_13856">
<rect width="24" height="24" fill="white"/>
</clipPath>
</defs>
</svg>
