<svg width="16" height="16" viewBox="0 0 16 16" fill="none" xmlns="http://www.w3.org/2000/svg">
<g id="Group">
<g id="Vector">
<mask id="path-1-inside-1_368_2496" fill="white">
<path d="M16 8C16 7.78783 15.9157 7.58434 15.7657 7.43431C15.6157 7.28429 15.4122 7.2 15.2 7.2C14.9878 7.2 14.7843 7.28429 14.6343 7.43431C14.4843 7.58434 14.4 7.78783 14.4 8H16ZM8 1.6C8.21217 1.6 8.41566 1.51571 8.56569 1.36569C8.71571 1.21566 8.8 1.01217 8.8 0.8C8.8 0.587827 8.71571 0.384344 8.56569 0.234315C8.41566 0.0842854 8.21217 0 8 0V1.6ZM14 14.4H2V16H14V14.4ZM1.6 14V2H0V14H1.6ZM14.4 8V14H16V8H14.4ZM2 1.6H8V0H2V1.6ZM2 14.4C1.89391 14.4 1.79217 14.3579 1.71716 14.2828C1.64214 14.2078 1.6 14.1061 1.6 14H0C0 14.5304 0.210714 15.0391 0.585786 15.4142C0.960859 15.7893 1.46957 16 2 16V14.4ZM14 16C14.5304 16 15.0391 15.7893 15.4142 15.4142C15.7893 15.0391 16 14.5304 16 14H14.4C14.4 14.1061 14.3579 14.2078 14.2828 14.2828C14.2078 14.3579 14.1061 14.4 14 14.4V16ZM1.6 2C1.6 1.89391 1.64214 1.79217 1.71716 1.71716C1.79217 1.64214 1.89391 1.6 2 1.6V0C1.46957 0 0.960859 0.210714 0.585786 0.585786C0.210714 0.960859 0 1.46957 0 2H1.6Z"/>
</mask>
<path d="M16 8C16 7.78783 15.9157 7.58434 15.7657 7.43431C15.6157 7.28429 15.4122 7.2 15.2 7.2C14.9878 7.2 14.7843 7.28429 14.6343 7.43431C14.4843 7.58434 14.4 7.78783 14.4 8H16ZM8 1.6C8.21217 1.6 8.41566 1.51571 8.56569 1.36569C8.71571 1.21566 8.8 1.01217 8.8 0.8C8.8 0.587827 8.71571 0.384344 8.56569 0.234315C8.41566 0.0842854 8.21217 0 8 0V1.6ZM14 14.4H2V16H14V14.4ZM1.6 14V2H0V14H1.6ZM14.4 8V14H16V8H14.4ZM2 1.6H8V0H2V1.6ZM2 14.4C1.89391 14.4 1.79217 14.3579 1.71716 14.2828C1.64214 14.2078 1.6 14.1061 1.6 14H0C0 14.5304 0.210714 15.0391 0.585786 15.4142C0.960859 15.7893 1.46957 16 2 16V14.4ZM14 16C14.5304 16 15.0391 15.7893 15.4142 15.4142C15.7893 15.0391 16 14.5304 16 14H14.4C14.4 14.1061 14.3579 14.2078 14.2828 14.2828C14.2078 14.3579 14.1061 14.4 14 14.4V16ZM1.6 2C1.6 1.89391 1.64214 1.79217 1.71716 1.71716C1.79217 1.64214 1.89391 1.6 2 1.6V0C1.46957 0 0.960859 0.210714 0.585786 0.585786C0.210714 0.960859 0 1.46957 0 2H1.6Z" fill="#2B417D"/>
<path d="M14.4 8.75H16V7.25H14.4V8.75ZM7.25 0V1.6H8.75V0H7.25ZM1.25 14.4V16H2.75V14.4H1.25ZM14.75 16V14.4H13.25V16H14.75ZM1.6 1.25H0V2.75H1.6V1.25ZM0 14.75H1.6V13.25H0V14.75ZM14.4 14.75H16V13.25H14.4V14.75ZM1.25 0V1.6H2.75V0H1.25ZM8 1.6V3.1V1.6ZM8 0V-1.5V0ZM1.6 14H3.1H1.6ZM1.6 2H3.1H1.6ZM0 2H-1.5H0ZM2 1.6V3.1V1.6ZM17.5 8C17.5 7.39 17.2577 6.80499 16.8263 6.37365L14.705 8.49498C14.5737 8.3637 14.5 8.18565 14.5 8H17.5ZM16.8263 6.37365C16.395 5.94232 15.81 5.7 15.2 5.7V8.7C15.0143 8.7 14.8363 8.62625 14.705 8.49498L16.8263 6.37365ZM15.2 5.7C14.59 5.7 14.005 5.94232 13.5737 6.37365L15.695 8.49498C15.5637 8.62625 15.3857 8.7 15.2 8.7V5.7ZM13.5737 6.37365C13.1423 6.80499 12.9 7.39 12.9 8H15.9C15.9 8.18565 15.8263 8.3637 15.695 8.49498L13.5737 6.37365ZM8 3.1C8.61 3.1 9.19501 2.85768 9.62635 2.42635L7.50503 0.305025C7.6363 0.17375 7.81435 0.1 8 0.1V3.1ZM9.62635 2.42635C10.0577 1.99501 10.3 1.41 10.3 0.8H7.3C7.3 0.614348 7.37375 0.4363 7.50503 0.305025L9.62635 2.42635ZM10.3 0.8C10.3 0.190001 10.0577 -0.395012 9.62635 -0.826346L7.50503 1.29497C7.37375 1.1637 7.3 0.985652 7.3 0.8H10.3ZM9.62635 -0.826346C9.19501 -1.25768 8.61 -1.5 8 -1.5V1.5C7.81435 1.5 7.6363 1.42625 7.50503 1.29497L9.62635 -0.826346ZM14 12.9H2V15.9H14V12.9ZM2 17.5H14V14.5H2V17.5ZM3.1 14V2H0.1V14H3.1ZM-1.5 2V14H1.5V2H-1.5ZM12.9 8V14H15.9V8H12.9ZM17.5 14V8H14.5V14H17.5ZM2 3.1H8V0.1H2V3.1ZM8 -1.5H2V1.5H8V-1.5ZM2 12.9C2.29174 12.9 2.57153 13.0159 2.77782 13.2222L0.656497 15.3435C1.01282 15.6998 1.49609 15.9 2 15.9V12.9ZM2.77782 13.2222C2.98411 13.4285 3.1 13.7083 3.1 14H0.1C0.1 14.5039 0.300178 14.9872 0.656497 15.3435L2.77782 13.2222ZM-1.5 14C-1.5 14.9283 -1.13125 15.8185 -0.474874 16.4749L1.64645 14.3536C1.55268 14.2598 1.5 14.1326 1.5 14H-1.5ZM-0.474874 16.4749C0.181504 17.1313 1.07174 17.5 2 17.5V14.5C1.86739 14.5 1.74021 14.4473 1.64645 14.3536L-0.474874 16.4749ZM14 17.5C14.9283 17.5 15.8185 17.1313 16.4749 16.4749L14.3536 14.3536C14.2598 14.4473 14.1326 14.5 14 14.5V17.5ZM16.4749 16.4749C17.1313 15.8185 17.5 14.9283 17.5 14H14.5C14.5 14.1326 14.4473 14.2598 14.3536 14.3536L16.4749 16.4749ZM12.9 14C12.9 13.7083 13.0159 13.4285 13.2222 13.2222L15.3435 15.3435C15.6998 14.9872 15.9 14.5039 15.9 14H12.9ZM13.2222 13.2222C13.4285 13.0159 13.7083 12.9 14 12.9V15.9C14.5039 15.9 14.9872 15.6998 15.3435 15.3435L13.2222 13.2222ZM3.1 2C3.1 2.29174 2.98411 2.57153 2.77782 2.77782L0.656497 0.656497C0.300179 1.01282 0.1 1.49609 0.1 2H3.1ZM2.77782 2.77782C2.57153 2.98411 2.29174 3.1 2 3.1V0.1C1.49609 0.1 1.01282 0.300179 0.656497 0.656497L2.77782 2.77782ZM2 -1.5C1.07174 -1.5 0.181504 -1.13125 -0.474874 -0.474874L1.64645 1.64645C1.74021 1.55268 1.86739 1.5 2 1.5V-1.5ZM-0.474874 -0.474874C-1.13125 0.181504 -1.5 1.07174 -1.5 2H1.5C1.5 1.86739 1.55268 1.74021 1.64645 1.64645L-0.474874 -0.474874Z" fill="#2B417D" mask="url(#path-1-inside-1_368_2496)"/>
</g>
<path id="Vector_2" d="M0.799805 12.3998L5.077 8.479C5.22117 8.34688 5.40874 8.27213 5.60427 8.26889C5.79979 8.26564 5.98974 8.33413 6.1382 8.4614L11.1998 12.7998M9.5998 10.7998L11.509 8.8906C11.6452 8.75434 11.826 8.67179 12.0181 8.65812C12.2103 8.64445 12.4009 8.70059 12.555 8.8162L15.1998 10.7998M13.1998 5.5998V0.799805M13.1998 0.799805L11.1998 2.7998M13.1998 0.799805L15.1998 2.7998" stroke="#2B417D" stroke-width="1.5" stroke-linecap="round" stroke-linejoin="round"/>
</g>
</svg>
