<svg width="20" height="20" viewBox="0 0 20 20" fill="none" xmlns="http://www.w3.org/2000/svg">
<g id="Frame">
<g id="Group">
<path id="Vector" d="M6.90048 4.00014C6.72624 3.99691 6.55531 4.04792 6.41133 4.1461C6.26735 4.24428 6.15745 4.38479 6.09684 4.54818C6.03622 4.71156 6.02789 4.88975 6.07299 5.05808C6.11809 5.22641 6.21439 5.37656 6.34857 5.48776L11.4839 9.88399L6.3454 14.2802C6.25153 14.3487 6.17286 14.4358 6.11436 14.5362C6.05586 14.6365 6.01879 14.7479 6.00551 14.8633C5.99223 14.9788 6.00301 15.0957 6.03719 15.2067C6.07136 15.3177 6.12817 15.4205 6.20404 15.5084C6.27992 15.5964 6.3732 15.6677 6.47801 15.7178C6.58282 15.7679 6.69688 15.7957 6.81299 15.7995C6.9291 15.8034 7.04473 15.7831 7.1526 15.7399C7.26047 15.6968 7.35823 15.6318 7.4397 15.549L13.314 10.5279C13.4064 10.449 13.4806 10.351 13.5315 10.2406C13.5823 10.1303 13.6087 10.0102 13.6087 9.88875C13.6087 9.76725 13.5823 9.6472 13.5315 9.53686C13.4806 9.42652 13.4064 9.32852 13.314 9.24961L7.4397 4.21266C7.29084 4.08013 7.09973 4.00481 6.90048 4.00014Z" fill="black"/>
</g>
</g>
</svg>
