<svg width="25" height="24" viewBox="0 0 25 24" fill="none" xmlns="http://www.w3.org/2000/svg">
<path d="M20 14.5022C19.7635 14.5022 19.5292 14.5471 19.3095 14.6346C19.2346 14.3593 19.098 14.1048 18.9099 13.8904C18.7218 13.676 18.4872 13.5073 18.2241 13.3973C17.9609 13.2873 17.6761 13.2388 17.3914 13.2556C17.1066 13.2723 16.8295 13.3539 16.581 13.494C16.5077 13.3793 16.4221 13.2728 16.3259 13.1765C16.0756 12.9261 15.7596 12.7517 15.4143 12.6735C15.069 12.5954 14.7087 12.6166 14.375 12.7347V10.7522H15C15.1658 10.7522 15.3247 10.6864 15.4419 10.5692C15.5592 10.452 15.625 10.293 15.625 10.1272V7.62725C15.6244 7.17514 15.4606 6.73845 15.1639 6.39738C14.8671 6.05631 14.4572 5.83377 14.0096 5.77065C14.3259 5.46902 14.5446 5.07956 14.6375 4.65246C14.7304 4.22537 14.6932 3.78024 14.5308 3.37447C14.3684 2.9687 14.0881 2.6209 13.7261 2.37592C13.3641 2.13093 12.9371 2 12.5 2C12.0629 2 11.6359 2.13093 11.2739 2.37592C10.9119 2.6209 10.6316 2.9687 10.4692 3.37447C10.3068 3.78024 10.2696 4.22537 10.3625 4.65246C10.4554 5.07956 10.6741 5.46902 10.9904 5.77065C10.5428 5.83377 10.1329 6.05631 9.83612 6.39738C9.53936 6.73845 9.37562 7.17514 9.375 7.62725V10.1272C9.375 10.293 9.44085 10.452 9.55806 10.5692C9.67527 10.6864 9.83424 10.7522 10 10.7522H10.625V16.3789C10.0848 15.9716 9.42654 15.7515 8.75 15.7522C8.58424 15.7522 8.42527 15.8181 8.30806 15.9353C8.19085 16.0525 8.125 16.2115 8.125 16.3772V22.0022H9.375V17.1094C9.74032 17.239 10.0566 17.4785 10.2804 17.7951C10.5042 18.1116 10.6246 18.4896 10.625 18.8772V22.0022H11.875V10.7522C11.875 10.5865 11.9408 10.4275 12.0581 10.3103C12.1753 10.1931 12.3342 10.1272 12.5 10.1272C12.6658 10.1272 12.8247 10.1931 12.9419 10.3103C13.0592 10.4275 13.125 10.5865 13.125 10.7522V16.6897H14.375V14.5022C14.375 14.3365 14.4408 14.1775 14.5581 14.0603C14.6753 13.9431 14.8342 13.8772 15 13.8772C15.1658 13.8772 15.3247 13.9431 15.4419 14.0603C15.5592 14.1775 15.625 14.3365 15.625 14.5022V17.0022H16.875V15.1272C16.875 14.9615 16.9408 14.8025 17.0581 14.6853C17.1753 14.5681 17.3342 14.5022 17.5 14.5022C17.6658 14.5022 17.8247 14.5681 17.9419 14.6853C18.0592 14.8025 18.125 14.9615 18.125 15.1272V17.6272H19.375V16.3772C19.375 16.2115 19.4408 16.0525 19.5581 15.9353C19.6753 15.8181 19.8342 15.7522 20 15.7522C20.1658 15.7522 20.3247 15.8181 20.4419 15.9353C20.5592 16.0525 20.625 16.2115 20.625 16.3772V22.0022H21.875V16.3772C21.875 16.131 21.8266 15.8872 21.7324 15.6597C21.6381 15.4322 21.5 15.2254 21.3259 15.0513C21.1518 14.8772 20.9451 14.7391 20.7176 14.6449C20.4901 14.5507 20.2462 14.5022 20 14.5022ZM12.5 3.25225C12.6854 3.25225 12.8667 3.30723 13.0208 3.41025C13.175 3.51326 13.2952 3.65968 13.3661 3.83098C13.4371 4.00229 13.4557 4.19079 13.4195 4.37265C13.3833 4.5545 13.294 4.72155 13.1629 4.85266C13.0318 4.98377 12.8648 5.07306 12.6829 5.10923C12.501 5.14541 12.3125 5.12684 12.1412 5.05589C11.9699 4.98493 11.8235 4.86477 11.7205 4.7106C11.6175 4.55642 11.5625 4.37517 11.5625 4.18975C11.5628 3.94119 11.6616 3.7029 11.8374 3.52714C12.0132 3.35139 12.2514 3.25253 12.5 3.25225ZM12.5 8.87725C12.2364 8.87718 11.9758 8.93283 11.7352 9.04054C11.4946 9.14825 11.2795 9.30559 11.1039 9.50225H10.625V7.62725C10.6252 7.46155 10.6911 7.30269 10.8083 7.18552C10.9254 7.06836 11.0843 7.00244 11.25 7.00225H13.75C13.9157 7.00244 14.0746 7.06836 14.1917 7.18552C14.3089 7.30269 14.3748 7.46155 14.375 7.62725V9.50225H13.8975C13.8743 9.4763 13.8505 9.45099 13.8259 9.42635C13.6522 9.2517 13.4456 9.11324 13.218 9.01898C12.9904 8.92473 12.7463 8.87656 12.5 8.87725Z" fill="white"/>
<path d="M20.8846 7.02065C21.2009 6.71902 21.4196 6.32956 21.5125 5.90246C21.6054 5.47537 21.5682 5.03024 21.4058 4.62447C21.2434 4.2187 20.9631 3.8709 20.6011 3.62592C20.2391 3.38093 19.8121 3.25 19.375 3.25C18.9379 3.25 18.5109 3.38093 18.1489 3.62592C17.7869 3.8709 17.5066 4.2187 17.3442 4.62447C17.1818 5.03024 17.1446 5.47537 17.2375 5.90246C17.3304 6.32956 17.5491 6.71902 17.8654 7.02065C17.4178 7.08377 17.0079 7.30631 16.7111 7.64738C16.4144 7.98845 16.2506 8.42514 16.25 8.87725V11.3772C16.25 11.543 16.3158 11.702 16.4331 11.8192C16.5503 11.9364 16.7092 12.0022 16.875 12.0022H21.875C22.0408 12.0022 22.1997 11.9364 22.3169 11.8192C22.4342 11.702 22.5 11.543 22.5 11.3772V8.87725C22.4994 8.42514 22.3356 7.98845 22.0389 7.64738C21.7421 7.30631 21.3322 7.08377 20.8846 7.02065ZM19.375 4.50225C19.5604 4.50225 19.7417 4.55723 19.8958 4.66025C20.05 4.76326 20.1702 4.90968 20.2411 5.08098C20.3121 5.25229 20.3307 5.44079 20.2945 5.62265C20.2583 5.8045 20.169 5.97155 20.0379 6.10266C19.9068 6.23377 19.7398 6.32306 19.5579 6.35923C19.376 6.39541 19.1875 6.37684 19.0162 6.30589C18.8449 6.23493 18.6985 6.11477 18.5955 5.9606C18.4925 5.80642 18.4375 5.62517 18.4375 5.43975C18.4378 5.19119 18.5366 4.9529 18.7124 4.77714C18.8882 4.60139 19.1264 4.50253 19.375 4.50225ZM21.25 10.7522H17.5V8.87725C17.5002 8.71155 17.5661 8.55269 17.6833 8.43552C17.8004 8.31836 17.9593 8.25245 18.125 8.25225H20.625C20.7907 8.25245 20.9496 8.31836 21.0667 8.43552C21.1839 8.55269 21.2498 8.71155 21.25 8.87725V10.7522ZM8.75 11.3772V8.87725C8.74938 8.42514 8.58564 7.98845 8.28888 7.64738C7.99211 7.30631 7.58225 7.08377 7.13457 7.02065C7.45089 6.71902 7.66961 6.32956 7.76251 5.90246C7.85542 5.47537 7.81825 5.03024 7.6558 4.62447C7.49335 4.2187 7.21307 3.8709 6.8511 3.62592C6.48914 3.38093 6.06208 3.25 5.625 3.25C5.18792 3.25 4.76086 3.38093 4.3989 3.62592C4.03693 3.8709 3.75665 4.2187 3.5942 4.62447C3.43175 5.03024 3.39458 5.47537 3.48749 5.90246C3.58039 6.32956 3.79911 6.71902 4.11543 7.02065C3.66775 7.08377 3.25789 7.30631 2.96112 7.64738C2.66436 7.98845 2.50062 8.42514 2.5 8.87725V11.3772C2.5 11.543 2.56585 11.702 2.68306 11.8192C2.80027 11.9364 2.95924 12.0022 3.125 12.0022H8.125C8.29076 12.0022 8.44973 11.9364 8.56694 11.8192C8.68415 11.702 8.75 11.543 8.75 11.3772ZM5.625 4.50225C5.81042 4.50225 5.99168 4.55723 6.14585 4.66025C6.30002 4.76326 6.42018 4.90968 6.49114 5.08098C6.56209 5.25229 6.58066 5.44079 6.54449 5.62265C6.50831 5.8045 6.41902 5.97155 6.28791 6.10266C6.1568 6.23377 5.98975 6.32306 5.8079 6.35923C5.62604 6.39541 5.43754 6.37684 5.26623 6.30589C5.09493 6.23493 4.94851 6.11477 4.8455 5.9606C4.74248 5.80642 4.6875 5.62517 4.6875 5.43975C4.68778 5.19119 4.78664 4.9529 4.9624 4.77714C5.13815 4.60139 5.37645 4.50253 5.625 4.50225ZM7.5 10.7522H3.75V8.87725C3.7502 8.71155 3.81611 8.55269 3.93328 8.43552C4.05044 8.31836 4.2093 8.25245 4.375 8.25225H6.875C7.0407 8.25245 7.19956 8.31836 7.31672 8.43552C7.43389 8.55269 7.4998 8.71155 7.5 8.87725V10.7522Z" fill="white"/>
</svg>
