<svg width="22" height="22" viewBox="0 0 22 22" fill="none" xmlns="http://www.w3.org/2000/svg">
<g id="back_arrow">
<path id="Vector" d="M15.2351 2.74062C15.1287 2.63392 15.0022 2.54926 14.863 2.49149C14.7238 2.43373 14.5746 2.40399 14.4239 2.40399C14.2732 2.40399 14.1239 2.43373 13.9847 2.49149C13.8455 2.54926 13.7191 2.63392 13.6126 2.74062L5.99512 10.3581C5.91015 10.4429 5.84273 10.5437 5.79673 10.6546C5.75073 10.7654 5.72705 10.8843 5.72705 11.0044C5.72705 11.1244 5.75073 11.2433 5.79673 11.3542C5.84273 11.4651 5.91015 11.5658 5.99512 11.6506L13.6126 19.2681C14.0618 19.7173 14.786 19.7173 15.2351 19.2681C15.6843 18.819 15.6843 18.0948 15.2351 17.6456L8.59846 10.9998L15.2443 4.35396C15.6843 3.91396 15.6843 3.18062 15.2351 2.74062Z" fill="#1E232C" stroke="#1E232C" stroke-width="0.2"/>
</g>
</svg>
