<svg width="24" height="24" viewBox="0 0 24 24" fill="none" xmlns="http://www.w3.org/2000/svg">
<path d="M10.3229 3H4.38537C3.62143 3 3 3.62143 3 4.38537V7.94787C3 8.71195 3.62143 9.33338 4.38537 9.33338H10.3229C11.0869 9.33338 11.7084 8.71195 11.7084 7.94787V4.38537C11.7084 3.62143 11.0869 3 10.3229 3ZM10.3229 10.9166H4.38537C3.62143 10.9166 3 11.5381 3 12.3021V20.6146C3 21.3786 3.62143 22 4.38537 22H10.3229C11.0869 22 11.7084 21.3786 11.7084 20.6146V12.3021C11.7084 11.5381 11.0869 10.9166 10.3229 10.9166ZM20.6146 15.6666H14.6771C13.9131 15.6666 13.2916 16.2881 13.2916 17.0521V20.6146C13.2916 21.3786 13.9131 22 14.6771 22H20.6146C21.3786 22 22 21.3786 22 20.6146V17.0521C22 16.2881 21.3786 15.6666 20.6146 15.6666ZM20.6146 3H14.6771C13.9131 3 13.2916 3.62143 13.2916 4.38537V12.6979C13.2916 13.4619 13.9131 14.0834 14.6771 14.0834H20.6146C21.3786 14.0834 22 13.4619 22 12.6979V4.38537C22 3.62143 21.3786 3 20.6146 3Z" fill="white"/>
</svg>
