<svg width="13" height="15" viewBox="0 0 13 15" fill="none" xmlns="http://www.w3.org/2000/svg">
<g id="Group">
<path id="Vector" fill-rule="evenodd" clip-rule="evenodd" d="M3.79628 0.416464C3.79631 0.306116 3.84378 0.200291 3.92828 0.122244C4.01277 0.0441962 4.12738 0.000312033 4.2469 0.00023438L8.75281 0C8.87237 0.000255884 8.98693 0.0442616 9.0714 0.122372C9.15587 0.200482 9.20335 0.306324 9.20343 0.416699V1.44554H3.79628V0.416464ZM11.2049 14.4044C11.1934 14.5666 11.1152 14.7186 10.9862 14.8294C10.8573 14.9401 10.6874 15.0011 10.5113 15H2.43662C2.26058 14.9995 2.09123 14.9376 1.96259 14.8267C1.83395 14.7157 1.75554 14.564 1.7431 14.4018L1.05213 5.07006H11.9423L11.205 14.4042L11.2049 14.4044ZM13 4.22488H0V3.25806C0.000193258 3.00164 0.110596 2.75577 0.306969 2.57444C0.503341 2.3931 0.769632 2.29112 1.04737 2.29089L11.9525 2.29057C12.2302 2.29096 12.4964 2.39303 12.6927 2.57439C12.8891 2.75574 12.9995 3.00158 12.9997 3.25797V4.22479L13 4.22488ZM4.40681 12.7754C4.40681 12.8309 4.41864 12.8858 4.44164 12.9371C4.46464 12.9884 4.49836 13.0349 4.54085 13.0742C4.58335 13.1134 4.6338 13.1445 4.68933 13.1658C4.74486 13.187 4.80437 13.1979 4.86447 13.1979C4.92457 13.1979 4.98409 13.187 5.03961 13.1658C5.09514 13.1445 5.14559 13.1134 5.18809 13.0742C5.23059 13.0349 5.2643 12.9884 5.2873 12.9371C5.3103 12.8858 5.32214 12.8309 5.32214 12.7754V6.85006C5.32117 6.73862 5.27256 6.63205 5.18689 6.55356C5.10121 6.47506 4.98541 6.43099 4.86471 6.43095C4.744 6.43092 4.62817 6.47491 4.54244 6.55335C4.4567 6.63179 4.40801 6.73833 4.40697 6.84976V12.7754H4.40681ZM7.67221 12.7754C7.67221 12.8875 7.72044 12.995 7.80628 13.0742C7.89212 13.1535 8.00854 13.198 8.12994 13.198C8.25134 13.198 8.36776 13.1535 8.4536 13.0742C8.53945 12.995 8.58767 12.8875 8.58767 12.7754V6.85006C8.58671 6.73861 8.53809 6.63202 8.4524 6.55351C8.36671 6.47501 8.2509 6.43093 8.13018 6.4309C8.00946 6.43086 7.89361 6.47486 7.80786 6.55331C7.72212 6.63176 7.67342 6.73831 7.67237 6.84976L7.67221 12.7754Z" fill="#FC0005"/>
</g>
</svg>
