<svg width="21" height="20" viewBox="0 0 21 20" fill="none" xmlns="http://www.w3.org/2000/svg">
<g id="Frame">
<path id="Vector" d="M12.71 1.95123C12.4198 1.66096 12.0753 1.4307 11.6961 1.2736C11.3169 1.1165 10.9104 1.03564 10.5 1.03564C10.0895 1.03564 9.68311 1.1165 9.30391 1.2736C8.92471 1.4307 8.58018 1.66096 8.28999 1.95123L2.45124 7.78998C1.88263 8.38513 1.56534 9.17656 1.56534 9.99966C1.56534 10.8228 1.88263 11.6142 2.45124 12.2094L8.28999 18.0494C8.8879 18.6128 9.67843 18.9266 10.5 18.9266C11.3215 18.9266 12.1121 18.6128 12.71 18.0494L18.5487 12.2094C19.1277 11.6196 19.452 10.8261 19.452 9.99966C19.452 9.17321 19.1277 8.37977 18.5487 7.78998L12.71 1.95123ZM17.665 11.3262L11.8262 17.1662C11.4739 17.5169 10.9971 17.7138 10.5 17.7138C10.0029 17.7138 9.52605 17.5169 9.17374 17.1662L3.33499 11.3256C2.99163 10.9696 2.79976 10.4943 2.79976 9.99966C2.79976 9.50506 2.99163 9.02973 3.33499 8.67373L9.17374 2.83498C9.34786 2.66074 9.55461 2.52252 9.78218 2.42822C10.0097 2.33392 10.2537 2.28538 10.5 2.28538C10.7463 2.28538 10.9902 2.33392 11.2178 2.42822C11.4454 2.52252 11.6521 2.66074 11.8262 2.83498L17.665 8.67373C18.0104 9.02868 18.2037 9.5044 18.2037 9.99966C18.2037 10.4949 18.0104 10.9713 17.665 11.3262Z" fill="#2B417D"/>
<path id="Vector_2" d="M14.1994 9.13689C14.1697 9.06057 14.1246 8.9912 14.0669 8.93314L12.1919 7.05814C12.074 6.94429 11.9161 6.88129 11.7522 6.88271C11.5884 6.88414 11.4316 6.94987 11.3157 7.06575C11.1999 7.18163 11.1341 7.33839 11.1327 7.50226C11.1313 7.66613 11.1943 7.82401 11.3081 7.94188L12.1163 8.75001H8.625C8.45924 8.75001 8.30027 8.81586 8.18306 8.93307C8.06585 9.05028 8 9.20925 8 9.37501V12.5C8 12.6658 8.06585 12.8247 8.18306 12.942C8.30027 13.0592 8.45924 13.125 8.625 13.125C8.79076 13.125 8.94973 13.0592 9.06694 12.942C9.18415 12.8247 9.25 12.6658 9.25 12.5V10H12.1163L11.3081 10.8081C11.191 10.9253 11.1251 11.0843 11.1251 11.25C11.1251 11.4157 11.191 11.5747 11.3081 11.6919C11.4264 11.807 11.585 11.8713 11.75 11.8713C11.915 11.8713 12.0736 11.807 12.1919 11.6919L14.0669 9.81688C14.1514 9.72793 14.2088 9.61667 14.2323 9.49621C14.2558 9.37574 14.2443 9.25108 14.1994 9.13689Z" fill="#2B417D"/>
</g>
</svg>
