<svg width="16" height="17" viewBox="0 0 16 17" fill="none" xmlns="http://www.w3.org/2000/svg">
<g id="Frame">
<path id="Vector" fill-rule="evenodd" clip-rule="evenodd" d="M11.7481 3.75866C12.1681 4.09199 12.4561 4.52999 12.5567 4.99332C12.6687 5.51066 12.5447 6.03532 12.2081 6.46932L6.46805 13.8733C6.17738 14.248 5.74139 14.4667 5.26939 14.4727L3.05472 14.5H3.04805C2.93009 14.4997 2.81575 14.4592 2.7238 14.3853C2.63185 14.3114 2.56776 14.2085 2.54205 14.0933L2.04072 11.914C1.98768 11.6864 1.98613 11.4499 2.03618 11.2216C2.08624 10.9933 2.18664 10.7792 2.33005 10.5947L3.08339 9.62266C3.125 9.56836 3.17703 9.5229 3.23643 9.48894C3.29582 9.45498 3.36139 9.43321 3.4293 9.42489C3.49721 9.41657 3.56609 9.42188 3.63193 9.4405C3.69776 9.45912 3.75922 9.49067 3.81272 9.53332C3.92135 9.61999 3.9915 9.74595 4.00796 9.88394C4.02443 10.0219 3.98591 10.1609 3.90072 10.2707L3.14739 11.2427C3.10025 11.3032 3.06729 11.3736 3.0509 11.4486C3.03452 11.5236 3.03514 11.6013 3.05272 11.676L3.45939 13.444L5.25605 13.422C5.33221 13.4211 5.40717 13.4029 5.4753 13.3688C5.54343 13.3348 5.60295 13.2857 5.64939 13.2253L11.3901 5.82199C11.5367 5.63332 11.5874 5.42999 11.5421 5.21732C11.4927 4.99266 11.3387 4.76799 11.1074 4.58532L10.1447 3.82132C9.77205 3.52799 9.24672 3.37666 8.88805 3.84066L8.12939 4.81799L9.33339 5.79332C9.55672 5.97399 9.59339 6.30532 9.41339 6.53066C9.37122 6.58451 9.31875 6.62942 9.25904 6.66276C9.19932 6.6961 9.13356 6.7172 9.06559 6.72484C8.99763 6.73247 8.92882 6.72648 8.8632 6.70722C8.79757 6.68796 8.73644 6.65581 8.68339 6.61266L7.48872 5.64466L5.52472 8.17799C5.48305 8.23234 5.43095 8.27782 5.37147 8.31178C5.31199 8.34573 5.24634 8.36748 5.17835 8.37574C5.11037 8.38399 5.04141 8.3786 4.97554 8.35987C4.90966 8.34114 4.84819 8.30945 4.79472 8.26666C4.68648 8.17969 4.61669 8.05372 4.60036 7.91584C4.58403 7.77796 4.62246 7.63917 4.70739 7.52932L8.07005 3.19199C8.72272 2.34932 9.86539 2.26666 10.7854 2.99532L11.7481 3.75866ZM9.06405 13.45H13.4807C13.7674 13.45 14.0001 13.6853 14.0001 13.9747C14.0004 14.0433 13.9872 14.1113 13.9613 14.1749C13.9353 14.2384 13.8971 14.2962 13.8489 14.345C13.8006 14.3938 13.7431 14.4326 13.6799 14.4592C13.6166 14.4858 13.5487 14.4996 13.4801 14.5H9.06405C8.99545 14.4996 8.92758 14.4858 8.86434 14.4592C8.8011 14.4326 8.74372 14.3938 8.69549 14.345C8.64725 14.2962 8.60911 14.2384 8.58324 14.1748C8.55737 14.1113 8.54428 14.0433 8.54472 13.9747C8.54472 13.6853 8.77672 13.45 9.06472 13.45H9.06405Z" fill="#2B417D"/>
</g>
</svg>
