<svg width="21" height="22" viewBox="0 0 21 22" fill="none" xmlns="http://www.w3.org/2000/svg">
<g clip-path="url(#clip0_695_2863)">
<path d="M10.4996 15.3436C9.91253 15.3436 9.42041 15.8357 9.42041 16.4228C9.42041 17.0099 9.91253 17.502 10.4996 17.502C11.0651 17.502 11.5788 17.0099 11.5529 16.4487C11.5788 15.8314 11.091 15.3436 10.4996 15.3436Z" fill="#FC0005"/>
<path d="M20.489 19.1683C21.1667 17.9984 21.1711 16.6041 20.4976 15.4385L13.7374 3.73117C13.0683 2.55267 11.8596 1.85333 10.5041 1.85333C9.14856 1.85333 7.93983 2.55698 7.27072 3.72686L0.501857 15.4472C-0.171575 16.6257 -0.167258 18.0287 0.514808 19.1985C1.18824 20.3555 2.39265 21.0505 3.73951 21.0505H17.2427C18.5939 21.0505 19.8069 20.3468 20.489 19.1683ZM19.0213 18.3222C18.6457 18.9697 17.9809 19.3539 17.2384 19.3539H3.7352C3.00133 19.3539 2.34085 18.9784 1.97391 18.3438C1.60266 17.7006 1.59834 16.9322 1.96959 16.2846L8.73845 4.56865C9.10539 3.92543 9.76155 3.54555 10.5041 3.54555C11.2422 3.54555 11.9027 3.92975 12.2697 4.57296L19.0342 16.289C19.3968 16.9192 19.3925 17.679 19.0213 18.3222Z" fill="#FC0005"/>
<path d="M10.2321 7.76747C9.71837 7.91424 9.39893 8.38046 9.39893 8.94597C9.42483 9.28701 9.44641 9.63236 9.47231 9.97339C9.5457 11.2728 9.61909 12.5462 9.69247 13.8456C9.71837 14.2859 10.0594 14.6054 10.4997 14.6054C10.9401 14.6054 11.2854 14.2644 11.307 13.8197C11.307 13.5521 11.307 13.306 11.3329 13.0341C11.3804 12.2009 11.4322 11.3677 11.4797 10.5346C11.5056 9.99497 11.553 9.45537 11.5789 8.91576C11.5789 8.7215 11.553 8.54882 11.4797 8.37615C11.2595 7.89266 10.7458 7.6466 10.2321 7.76747Z" fill="#FC0005"/>
</g>
<defs>
<clipPath id="clip0_695_2863">
<rect width="21" height="21" fill="white" transform="translate(0 0.951904)"/>
</clipPath>
</defs>
</svg>
