<svg width="22" height="22" viewBox="0 0 22 22" fill="none" xmlns="http://www.w3.org/2000/svg">
<g id="Group">
<path id="Vector" d="M8 15.0001C8 15.2653 7.89464 15.5197 7.70711 15.7072C7.51957 15.8948 7.26522 16.0001 7 16.0001C6.73478 16.0001 6.48043 15.8948 6.29289 15.7072C6.10536 15.5197 6 15.2653 6 15.0001C6 14.7349 6.10536 14.4806 6.29289 14.293C6.48043 14.1055 6.73478 14.0001 7 14.0001C7.26522 14.0001 7.51957 14.1055 7.70711 14.293C7.89464 14.4806 8 14.7349 8 15.0001ZM12 15.0001C12 15.2653 11.8946 15.5197 11.7071 15.7072C11.5196 15.8948 11.2652 16.0001 11 16.0001C10.7348 16.0001 10.4804 15.8948 10.2929 15.7072C10.1054 15.5197 10 15.2653 10 15.0001C10 14.7349 10.1054 14.4806 10.2929 14.293C10.4804 14.1055 10.7348 14.0001 11 14.0001C11.2652 14.0001 11.5196 14.1055 11.7071 14.293C11.8946 14.4806 12 14.7349 12 15.0001ZM16 15.0001C16 15.2653 15.8946 15.5197 15.7071 15.7072C15.5196 15.8948 15.2652 16.0001 15 16.0001C14.7348 16.0001 14.4804 15.8948 14.2929 15.7072C14.1054 15.5197 14 15.2653 14 15.0001C14 14.7349 14.1054 14.4806 14.2929 14.293C14.4804 14.1055 14.7348 14.0001 15 14.0001C15.2652 14.0001 15.5196 14.1055 15.7071 14.293C15.8946 14.4806 16 14.7349 16 15.0001Z" fill="#777777"/>
<path id="Vector_2" d="M5 9.00013V7.00013C5 6.66013 5.028 6.32513 5.083 6.00013M17 9.00013V7.00013C17.0001 5.78137 16.629 4.59149 15.9361 3.58882C15.2433 2.58616 14.2615 1.81827 13.1215 1.38734C11.9815 0.956405 10.7372 0.882868 9.55437 1.17651C8.37152 1.47016 7.30613 2.11706 6.5 3.03113M10 21.0001H7C4.172 21.0001 2.757 21.0001 1.879 20.1211C1 19.2431 1 17.8281 1 15.0001C1 12.1721 1 10.7571 1.879 9.87913C2.757 9.00013 4.172 9.00013 7 9.00013H15C17.828 9.00013 19.243 9.00013 20.121 9.87913C21 10.7571 21 12.1721 21 15.0001C21 17.8281 21 19.2431 20.121 20.1211C19.243 21.0001 17.828 21.0001 15 21.0001H14" stroke="#777777" stroke-width="1.5" stroke-linecap="round"/>
</g>
</svg>
