<svg width="20" height="20" viewBox="0 0 20 20" fill="none" xmlns="http://www.w3.org/2000/svg">
<g id="Frame">
<g id="Group">
<path id="Vector" d="M9.97344 16.618H3.99334C3.62656 16.618 3.32891 16.3203 3.32891 15.9535V3.99338C3.32891 3.62659 3.62659 3.32894 3.99334 3.32894H9.97344C10.3409 3.32894 10.6379 3.03194 10.6379 2.6645C10.6379 2.29706 10.3409 2 9.97344 2H3.99334C2.89434 2 2 2.89438 2 3.99338V15.9535C2 17.0525 2.89434 17.9468 3.99334 17.9468H9.97344C10.3409 17.9468 10.6379 17.6498 10.6379 17.2824C10.6379 16.915 10.3409 16.618 9.97344 16.618Z" fill="#FC0005"/>
<path id="Vector_2" d="M17.802 9.50028L13.7622 5.51356C13.5017 5.25574 13.0805 5.25909 12.8226 5.52021C12.5648 5.78134 12.5675 6.20193 12.8293 6.45974L15.7163 9.3089H7.98011C7.61267 9.3089 7.31567 9.6059 7.31567 9.97334C7.31567 10.3408 7.61267 10.6378 7.98011 10.6378H15.7163L12.8293 13.487C12.5675 13.7448 12.5655 14.1654 12.8226 14.4265C12.8844 14.4892 12.9581 14.539 13.0393 14.573C13.1205 14.607 13.2077 14.6245 13.2957 14.6245C13.4645 14.6245 13.6333 14.5607 13.7622 14.4331L17.802 10.4464C17.8647 10.3846 17.9144 10.3109 17.9484 10.2297C17.9824 10.1485 18 10.0613 18 9.97331C18 9.79531 17.929 9.62587 17.802 9.50028Z" fill="#FC0005"/>
</g>
</g>
</svg>
