<svg width="32" height="50" viewBox="0 0 32 50" fill="none" xmlns="http://www.w3.org/2000/svg">
<g clip-path="url(#clip0_1028_4368)">
<path d="M19.4063 43C18.4963 44.1694 17.5665 45.3232 16.6172 46.4609C16.4609 46.6406 16.2344 46.7422 16.0078 46.7422C15.7656 46.7422 15.5391 46.6406 15.3906 46.4609C15.2266 46.2578 14.1484 44.9688 12.6094 43C9.33595 43.5703 6.96095 44.9766 6.96095 46.3516C6.95314 48.0781 10.6719 50 16 50C21.3281 50 25.0469 48.0781 25.0469 46.3516C25.0469 44.9766 22.6797 43.5703 19.4063 43Z" fill="#2B417D" fill-opacity="0.5"/>
<path d="M32.2578 16.25C32.2578 7.28906 24.9688 0 16 0C7.03125 0 -0.257812 7.28906 -0.257812 16.25C-0.257812 24.2812 12.9609 40.9453 16 44.6719C19.0391 40.9453 32.2578 24.2812 32.2578 16.25ZM4.25781 16.25C4.25781 9.77344 9.52344 4.50781 16 4.50781C22.4766 4.50781 27.7422 9.77344 27.7422 16.25C27.7422 22.7344 22.4766 28 16 28C9.52344 28 4.25781 22.7344 4.25781 16.25Z" fill="#2B417D"/>
<path d="M28 15.9954C28 9.39191 22.6245 4 16 4C9.38473 4 4 9.38266 4 15.9954C4 22.6081 9.37548 28 16 28C22.6153 28 28 22.6081 28 15.9954Z" fill="#2B417D"/>
<path d="M18.6858 5.2054C19.9814 5.464 22.1667 6.45275 22.7599 7.03079C23.1033 7.38065 23.1814 7.59361 23.1814 8.20207C23.1814 8.85617 23.1189 9.0235 22.6506 9.47984C21.9482 10.1644 21.3862 10.1492 19.7316 9.40379C18.1238 8.67363 16.7814 8.41503 15.236 8.55194C10.4126 8.96265 6.88476 13.4501 7.77452 18.0135C8.11793 19.7476 8.83598 21.0863 10.0848 22.3336C11.7862 24.0221 14.0184 24.8587 16.4067 24.7218C20.6682 24.4632 23.915 21.3448 24.2272 17.2529C24.2741 16.6141 24.2897 16.0817 24.2585 16.0817C24.2272 16.0817 23.9775 16.1425 23.7277 16.2186C23.4624 16.2946 22.1667 16.6749 20.8399 17.0552C18.8106 17.6484 18.3423 17.8462 17.874 18.2873C16.9375 19.1696 15.9697 19.3521 14.8145 18.8349C13.8311 18.3938 13.2223 17.2225 13.4409 16.1577C13.5814 15.4276 14.4867 14.454 15.236 14.2411C15.7199 14.0889 16.0321 14.1042 16.7033 14.2563C17.4214 14.4236 17.6711 14.4236 18.3736 14.2258C18.8262 14.0889 20.918 13.4957 23.0097 12.8872C25.195 12.2636 26.8653 11.8528 26.9433 11.9289C27.2087 12.1875 27.7082 13.8151 27.8799 14.9864C28.9726 22.4705 22.4477 29.1179 14.8301 28.2813C10.9901 27.8554 8.03988 26.1213 5.91695 23.0485C5.02719 21.7556 4.54329 20.5995 4.19987 18.9718C3.85646 17.2834 3.96573 14.7735 4.44963 13.2675C5.76085 9.22125 9.19501 6.05725 13.2692 5.2054C14.5336 4.93159 17.3901 4.93159 18.6858 5.2054Z" fill="white"/>
<path d="M9.14439 29.0787C9.67512 29.3982 11.7356 30.0827 12.8595 30.3109C13.4683 30.4326 14.7795 30.5238 15.9034 30.5238C18.6976 30.5238 21.0547 29.885 23.3025 28.5463C23.7083 28.2877 24.0517 28.1508 24.0517 28.2117C24.0517 28.2725 22.2722 30.0523 20.1025 32.1515C17.0898 35.0721 16.0595 36 15.7629 36C15.482 36 14.4205 35.0569 11.3298 32.0298C7.2556 28.0444 7.16194 27.9075 9.14439 29.0787Z" fill="#80CE2F"/>
</g>
<defs>
<clipPath id="clip0_1028_4368">
<rect width="32" height="50" fill="white"/>
</clipPath>
</defs>
</svg>
