<svg width="25" height="24" viewBox="0 0 25 24" fill="none" xmlns="http://www.w3.org/2000/svg">
<g id="Frame">
<path id="Vector" d="M13.0664 18.6519L13.5355 17.4994C13.5586 17.4414 13.5952 17.3898 13.6423 17.3488C13.6894 17.3078 13.7455 17.2786 13.8061 17.2637C14.331 17.1339 14.8332 16.9254 15.2957 16.6454C15.349 16.6133 15.4091 16.5943 15.4712 16.59C15.5333 16.5857 15.5955 16.5962 15.6527 16.6206L16.7801 17.1018C17.081 16.864 17.3564 16.5956 17.6019 16.3009L17.1199 15.1531C17.0955 15.0958 17.0849 15.0336 17.0893 14.9716C17.0936 14.9095 17.1125 14.8493 17.1447 14.796C17.4247 14.3333 17.6334 13.831 17.7637 13.3061C17.7787 13.2455 17.808 13.1895 17.8489 13.1425C17.8899 13.0955 17.9415 13.0589 17.9994 13.0358L19.1386 12.5809C19.1876 12.2001 19.1923 11.815 19.1527 11.4331L17.9994 10.9641C17.9415 10.941 17.8899 10.9044 17.8489 10.8574C17.808 10.8104 17.7787 10.7543 17.7637 10.6938C17.6338 10.1688 17.4255 9.66639 17.1458 9.20348C17.1137 9.15018 17.0947 9.09001 17.0904 9.02793C17.0861 8.96585 17.0966 8.90363 17.1211 8.84641L17.6007 7.71824C17.363 7.41726 17.0947 7.14173 16.8002 6.89608L15.6527 7.37846C15.5955 7.40291 15.5333 7.41342 15.4712 7.40911C15.4091 7.40481 15.349 7.38582 15.2957 7.35371C14.8331 7.07394 14.3309 6.86575 13.8061 6.7362C13.7455 6.72124 13.6894 6.69206 13.6423 6.65107C13.5952 6.61009 13.5586 6.55847 13.5355 6.50051L13.081 5.36135C12.7001 5.3151 12.3154 5.31036 11.9336 5.34721L11.4645 6.50051C11.4414 6.55847 11.4048 6.61009 11.3577 6.65107C11.3106 6.69206 11.2545 6.72124 11.1939 6.7362C10.669 6.866 10.1668 7.07445 9.70433 7.35449C9.65103 7.38661 9.59086 7.4056 9.52878 7.4099C9.4667 7.4142 9.40448 7.4037 9.34726 7.37924L8.21831 6.89765C7.91739 7.1356 7.64187 7.40401 7.39614 7.6986L7.87852 8.84641C7.90297 8.90363 7.91348 8.96585 7.90918 9.02793C7.90488 9.09001 7.88589 9.15018 7.85377 9.20348C7.57422 9.66641 7.36605 10.1688 7.23627 10.6938C7.22125 10.7543 7.19204 10.8104 7.15106 10.8574C7.11007 10.9044 7.05849 10.941 7.00058 10.9641L5.86141 11.419C5.81241 11.7997 5.80767 12.1849 5.84727 12.5668L7.00058 13.0358C7.05849 13.0589 7.11007 13.0955 7.15106 13.1425C7.19204 13.1895 7.22125 13.2455 7.23627 13.3061C7.36617 13.8311 7.57448 14.3335 7.85417 14.7964C7.88628 14.8497 7.90527 14.9099 7.90957 14.9719C7.91387 15.034 7.90337 15.0962 7.87891 15.1535L7.39928 16.2816C7.63711 16.5826 7.90539 16.8583 8.19984 17.1042L9.34726 16.6214C9.39592 16.6006 9.44831 16.5899 9.50124 16.59C9.57279 16.5899 9.64301 16.6093 9.70433 16.6462C10.1669 16.9259 10.6691 17.1341 11.1939 17.2637C11.2545 17.2786 11.3106 17.3078 11.3577 17.3488C11.4048 17.3898 11.4414 17.4414 11.4645 17.4994L11.919 18.6385C12.2999 18.6845 12.6846 18.689 13.0664 18.6519ZM11.6283 14.2095C11.5938 14.2526 11.5506 14.2879 11.5016 14.3131C11.4525 14.3384 11.3986 14.353 11.3435 14.356L11.3216 14.3568C11.2699 14.357 11.2188 14.3469 11.1712 14.3271C11.1235 14.3074 11.0802 14.2783 11.0438 14.2417L10.2582 13.4561C10.1866 13.382 10.1471 13.2828 10.1479 13.1798C10.1488 13.0768 10.1902 12.9783 10.263 12.9054C10.3358 12.8326 10.4343 12.7913 10.5373 12.7904C10.6403 12.7895 10.7396 12.8291 10.8136 12.9007L11.2889 13.376L14.1565 9.79035C14.1887 9.75006 14.2286 9.71652 14.2738 9.69163C14.319 9.66675 14.3687 9.65101 14.42 9.64532C14.4712 9.63963 14.5232 9.6441 14.5727 9.65847C14.6223 9.67284 14.6685 9.69683 14.7088 9.72907C14.7491 9.76131 14.7826 9.80117 14.8075 9.84637C14.8324 9.89158 14.8481 9.94124 14.8538 9.99253C14.8595 10.0438 14.8551 10.0957 14.8407 10.1453C14.8263 10.1948 14.8023 10.2411 14.7701 10.2814L11.6283 14.2095ZM23.1001 12.3928C23.0008 12.3925 22.9051 12.4299 22.8322 12.4973C22.7593 12.5648 22.7147 12.6574 22.7073 12.7565C22.5709 14.6223 21.9239 16.4146 20.8373 17.9374C19.7506 19.4602 18.266 20.6549 16.546 21.3906C16.455 21.4299 16.3524 21.4334 16.2589 21.4002C16.1654 21.3671 16.0879 21.2998 16.042 21.2119L15.8963 20.9326C15.8923 20.9249 15.8864 20.9185 15.879 20.914C15.8717 20.9095 15.8633 20.9071 15.8546 20.907L15.3797 22.4508C15.3771 22.463 15.3788 22.4757 15.3845 22.4867C15.3903 22.4978 15.3997 22.5065 15.4112 22.5113L16.9278 22.996C16.9777 22.967 16.9671 22.9481 16.962 22.9379L16.7864 22.606C16.7614 22.5583 16.7465 22.5061 16.7425 22.4524C16.7386 22.3988 16.7457 22.3449 16.7634 22.2941C16.7811 22.2434 16.809 22.1967 16.8455 22.1572C16.882 22.1177 16.9262 22.086 16.9754 22.0643C18.7995 21.26 20.3703 19.9745 21.5195 18.3456C22.6687 16.7166 23.3529 14.8056 23.4988 12.8174C23.503 12.7633 23.4958 12.709 23.4778 12.6578C23.4597 12.6067 23.4312 12.5599 23.394 12.5204C23.3567 12.4797 23.3113 12.4473 23.2607 12.4253C23.21 12.4033 23.1553 12.3922 23.1001 12.3928ZM1.89986 11.6071C1.9992 11.6074 2.09495 11.57 2.16783 11.5025C2.24072 11.435 2.28533 11.3424 2.29268 11.2434C2.42911 9.37758 3.07605 7.58524 4.16273 6.06243C5.24941 4.53963 6.73397 3.34501 8.454 2.60928C8.54505 2.56994 8.64761 2.5665 8.74109 2.59965C8.83458 2.6328 8.91206 2.70009 8.95798 2.78801L9.10371 3.0673C9.10766 3.07495 9.11363 3.08138 9.12097 3.08588C9.12831 3.09038 9.13674 3.09279 9.14535 3.09283L9.62105 1.55103C9.62368 1.53887 9.62198 1.52617 9.61624 1.51512C9.6105 1.50408 9.60109 1.49538 9.58963 1.49054L8.07296 1.00384C8.02308 1.03291 8.03368 1.05176 8.03879 1.06198L8.21359 1.3939C8.23857 1.44154 8.25351 1.49379 8.25747 1.54743C8.26143 1.60107 8.25434 1.65495 8.23662 1.70574C8.21891 1.75652 8.19096 1.80313 8.15449 1.84267C8.11803 1.88221 8.07383 1.91384 8.02465 1.9356C6.20053 2.73985 4.62968 4.02535 3.48048 5.65432C2.33127 7.28329 1.64705 9.19429 1.50115 11.1825C1.49698 11.2366 1.50416 11.2909 1.52222 11.3421C1.54028 11.3932 1.56883 11.44 1.60603 11.4795C1.64329 11.5202 1.68871 11.5526 1.73934 11.5746C1.78997 11.5966 1.84466 11.6077 1.89986 11.6071ZM3.28807 15.5412L3.56736 15.3954C3.5757 15.3924 3.58275 15.3866 3.58739 15.3791C3.59203 15.3715 3.59397 15.3626 3.5929 15.3538L2.05109 14.8789C2.03893 14.8762 2.02619 14.8778 2.01513 14.8836C2.00407 14.8893 1.99538 14.8988 1.9906 14.9103L1.5039 16.427C1.53336 16.4769 1.55183 16.4663 1.56204 16.4611L1.89397 16.2863C1.95033 16.2568 2.01301 16.2415 2.07663 16.2416C2.12064 16.2415 2.16435 16.2489 2.20586 16.2636C2.25661 16.2813 2.30319 16.3092 2.34272 16.3456C2.38225 16.382 2.41388 16.4262 2.43566 16.4753C3.23991 18.2994 4.52542 19.8703 6.15438 21.0195C7.78335 22.1687 9.69436 22.8529 11.6825 22.9988C11.7367 23.0036 11.7912 22.9967 11.8424 22.9786C11.8937 22.9605 11.9404 22.9316 11.9795 22.8939C12.0369 22.8423 12.0778 22.775 12.0971 22.7003C12.1164 22.6256 12.1133 22.5468 12.0882 22.4739C12.063 22.401 12.017 22.337 11.9557 22.2901C11.8945 22.2432 11.8208 22.2153 11.7438 22.21C9.87766 22.0734 8.08503 21.4261 6.56212 20.3389C5.03921 19.2517 3.84471 17.7665 3.10934 16.0459C3.06977 15.9548 3.06621 15.852 3.09937 15.7584C3.13254 15.6647 3.19996 15.5871 3.28807 15.5412ZM13.0205 1.10715C12.9631 1.15875 12.9222 1.2261 12.9029 1.30079C12.8836 1.37548 12.8867 1.45421 12.9118 1.52715C12.937 1.60009 12.983 1.66401 13.0443 1.71094C13.1055 1.75787 13.1792 1.78573 13.2562 1.79104C15.1222 1.92754 16.9147 2.57469 18.4376 3.66166C19.9605 4.74863 21.1551 6.23355 21.8907 7.95393C21.93 8.04498 21.9334 8.14755 21.9003 8.24103C21.8671 8.33451 21.7998 8.41199 21.7119 8.45791L21.4326 8.60365C21.4243 8.60669 21.4172 8.61246 21.4126 8.62002C21.408 8.62758 21.406 8.63648 21.4071 8.64529L22.9509 9.1202C22.963 9.12291 22.9758 9.12124 22.9868 9.1155C22.9979 9.10975 23.0066 9.10029 23.0114 9.08878L23.4961 7.57211C23.4666 7.52262 23.4482 7.53283 23.438 7.53794L23.106 7.71353C23.0584 7.73851 23.0061 7.75345 22.9525 7.75741C22.8989 7.76137 22.845 7.75428 22.7942 7.73656C22.7434 7.71885 22.6968 7.69089 22.6573 7.65443C22.6177 7.61797 22.5861 7.57377 22.5643 7.52458C21.7601 5.70047 20.4746 4.12962 18.8456 2.98041C17.2167 1.83121 15.3056 1.14699 13.3175 1.00109C13.2633 0.997025 13.2089 1.00436 13.1577 1.02263C13.1066 1.0409 13.0598 1.06969 13.0205 1.10715Z" fill="white"/>
</g>
</svg>
