<svg width="20" height="24" viewBox="0 0 20 24" fill="none" xmlns="http://www.w3.org/2000/svg">
<path id="Vector" d="M16.8889 12.3083V10.1582C16.8889 7.02167 14.8262 4.36324 12 3.49494V2.52148C12 1.40684 11.1028 0.5 10 0.5C8.89723 0.5 8.00004 1.40684 8.00004 2.52148V3.49494C5.17383 4.36324 3.11118 7.02162 3.11118 10.1582V12.3083C3.11118 15.0634 2.07216 17.6759 0.185546 19.6645C0.0950871 19.7598 0.0343392 19.8799 0.0108544 20.0098C-0.0126305 20.1397 0.00218351 20.2738 0.0534546 20.3953C0.104726 20.5168 0.190193 20.6203 0.299231 20.6931C0.408269 20.7659 0.536069 20.8047 0.666744 20.8047H6.73378C7.04347 22.3407 8.3903 23.5 10 23.5C11.6098 23.5 12.9565 22.3407 13.2663 20.8047H19.3333C19.464 20.8047 19.5918 20.7659 19.7008 20.6931C19.8098 20.6203 19.8953 20.5167 19.9465 20.3952C19.9978 20.2738 20.0126 20.1397 19.9892 20.0098C19.9657 19.8799 19.905 19.7598 19.8145 19.6645C17.9279 17.6759 16.8889 15.0634 16.8889 12.3083ZM9.33337 2.52148C9.33337 2.14994 9.63243 1.84766 10 1.84766C10.3676 1.84766 10.6667 2.14994 10.6667 2.52148V3.22802C10.4473 3.20663 10.2249 3.19531 10 3.19531C9.77514 3.19531 9.55279 3.20663 9.33337 3.22802V2.52148ZM10 22.1523C9.13092 22.1523 8.3899 21.589 8.11471 20.8047H11.8854C11.6102 21.589 10.8691 22.1523 10 22.1523ZM2.10363 19.457C3.62188 17.4 4.4445 14.9106 4.4445 12.3083V10.1582C4.4445 7.06196 6.93671 4.54297 10 4.54297C13.0633 4.54297 15.5556 7.06196 15.5556 10.1582V12.3083C15.5556 14.9106 16.3782 17.4 17.8965 19.457H2.10363ZM18.6667 10.1582C18.6667 10.5303 18.9651 10.832 19.3333 10.832C19.7015 10.832 20 10.5303 20 10.1582C20 7.4584 18.9598 4.92018 17.0711 3.01113C16.8107 2.74803 16.3886 2.74798 16.1283 3.01113C15.8679 3.27429 15.8679 3.70091 16.1283 3.96406C17.7652 5.61858 18.6667 7.81836 18.6667 10.1582ZM0.666744 10.832C1.03492 10.832 1.33341 10.5303 1.33341 10.1582C1.33341 7.8184 2.23491 5.61862 3.87179 3.96411C4.13215 3.70095 4.13215 3.27433 3.87179 3.01118C3.61148 2.74803 3.18935 2.74803 2.929 3.01118C1.04025 4.92022 8.03542e-05 7.4584 8.03542e-05 10.1582C8.03542e-05 10.5303 0.298568 10.832 0.666744 10.832Z" fill="black"/>
</svg>
