<svg width="51" height="51" viewBox="0 0 51 51" fill="none" xmlns="http://www.w3.org/2000/svg">
<g id="Frame">
<g id="Group">
<path id="Vector" d="M34.7762 22.7313C35.9891 22.5045 37.1079 21.628 37.2902 19.6841C37.4404 18.0931 36.9737 17.2736 36.2846 16.8559C38.1976 10.0392 32.9213 8.70476 32.9213 8.70476C32.9213 8.70476 28.978 2.8565 21.2848 6.96053C20.3063 7.4824 18.7849 8.48235 17.8784 9.51471C16.4231 10.8684 15.4326 13.0688 15.2773 16.6326C14.3378 16.9461 13.5997 17.7394 13.7829 19.6833C13.9753 21.7156 15.1882 22.5807 16.4642 22.7576C18.1869 26.4255 21.5883 29.4482 25.6137 29.4482C29.6481 29.4482 33.0565 26.4115 34.7762 22.7313ZM25.6137 27.7381C20.9593 27.7381 17.2114 22.2129 17.2114 17.6378C17.2114 17.0109 17.2344 16.4295 17.2785 15.8901C24.0863 16.1501 28.1126 13.7641 30.3041 11.6941C32.3824 13.5049 33.4621 15.792 34.014 17.4898L34.015 17.6369C34.016 22.2129 30.2691 27.7381 25.6137 27.7381ZM22.9475 34.6555L23.4863 32.7055C23.5484 32.4804 23.6816 32.2878 23.8619 32.1398C23.8065 32.1055 23.7524 32.0695 23.6996 32.0321L18.886 28.548L15.9564 29.147C10.9955 30.167 7.5 33.8298 7.5 38.031V43.5474C7.5 44.6331 8.60475 45.4991 9.92684 45.4991H22.3275L24.2185 36.0757C24.02 36.0748 23.8244 36.0346 23.6463 35.9582C23.4682 35.8818 23.3121 35.7711 23.1898 35.6345C23.0676 35.4979 22.9823 35.3388 22.9403 35.1693C22.8983 34.9997 22.9008 34.8241 22.9475 34.6555ZM35.0947 29.147L32.2051 28.548L27.3965 32.0321C27.3444 32.0695 27.291 32.1054 27.2362 32.1398C27.4175 32.2878 27.5507 32.4804 27.6138 32.7055L28.1517 34.6555C28.1984 34.8241 28.2008 34.9998 28.1588 35.1694C28.1169 35.339 28.0316 35.4981 27.9093 35.6348C27.7871 35.7714 27.631 35.8822 27.4529 35.9587C27.2748 36.0352 27.0792 36.0755 26.8807 36.0766L28.7717 45.5H41.1723C42.4944 45.5 43.5 44.6349 43.5 43.5482V38.0319C43.502 33.8298 40.0555 30.167 35.0947 29.147Z" fill="#1B3376"/>
</g>
</g>
</svg>
