<svg width="20" height="20" viewBox="0 0 20 20" fill="none" xmlns="http://www.w3.org/2000/svg">
<g id="Frame">
<g id="Group">
<path id="Vector" d="M16.492 3.50803C14.4813 1.49731 11.2096 1.49734 9.19885 3.50803C7.82554 4.88134 7.34866 6.90569 7.94307 8.74188L2.13734 14.5476C2.0938 14.5912 2.05926 14.6428 2.0357 14.6997C2.01213 14.7566 2 14.8176 2 14.8791V17.5312C2 17.7901 2.20991 18 2.46881 18H5.12088C5.24525 18 5.36444 17.9506 5.45241 17.8627L6.11553 17.1995C6.16553 17.1495 6.20357 17.0889 6.2268 17.0221C6.25004 16.9553 6.25786 16.8841 6.24969 16.8139L6.16694 16.1019L7.15394 16.0089C7.26259 15.9986 7.36427 15.9508 7.44144 15.8736C7.51861 15.7965 7.56644 15.6948 7.57669 15.5862L7.66979 14.599L8.38182 14.6818C8.44751 14.6894 8.51408 14.6831 8.57714 14.6632C8.6402 14.6432 8.69834 14.6102 8.74773 14.5662C8.79713 14.5222 8.83665 14.4683 8.86372 14.408C8.89079 14.3476 8.90478 14.2822 8.90479 14.2161V13.343H9.76197C9.88538 13.343 10.0038 13.2944 10.0916 13.2076L11.2563 12.0563C13.0929 12.6517 15.1183 12.1749 16.492 10.8011C18.5027 8.79044 18.5027 5.51872 16.492 3.50803ZM15.829 10.1382C14.6457 11.3214 12.8707 11.6908 11.307 11.0792C11.2226 11.0462 11.1304 11.0384 11.0415 11.0567C10.9527 11.075 10.8711 11.1187 10.8067 11.1824L9.56938 12.4054H8.43594C8.17704 12.4054 7.96713 12.6153 7.96713 12.8742V13.6896L7.30213 13.6123C7.24012 13.6051 7.17731 13.6104 7.11736 13.6278C7.05741 13.6452 7.00154 13.6744 6.95302 13.7136C6.9045 13.7529 6.86431 13.8015 6.83481 13.8565C6.80531 13.9115 6.78709 13.9719 6.78122 14.034L6.67957 15.1118L5.60188 15.2133C5.53973 15.2192 5.47937 15.2374 5.42435 15.2669C5.36934 15.2964 5.32076 15.3366 5.28148 15.3851C5.2422 15.4336 5.21301 15.4895 5.19561 15.5495C5.17821 15.6094 5.17296 15.6722 5.18016 15.7343L5.2921 16.6969L4.92666 17.0624H2.93759V15.0734L8.81563 9.19535C8.88008 9.1309 8.92435 9.04907 8.94302 8.95986C8.96169 8.87066 8.95395 8.77794 8.92075 8.69306C8.30913 7.12937 8.67854 5.35444 9.86182 4.17109C11.507 2.52597 14.1838 2.52597 15.8289 4.17109C17.4741 5.81619 17.4741 8.49303 15.829 10.1382Z" fill="#1F3778"/>
<path id="Vector_2" d="M15.1659 4.83402C14.6176 4.28562 13.7253 4.28565 13.1769 4.83402C12.6285 5.3824 12.6285 6.27468 13.1769 6.82306C13.7253 7.37143 14.6176 7.37149 15.1659 6.82306C15.7143 6.27468 15.7143 5.3824 15.1659 4.83402ZM14.5029 6.16005C14.3202 6.34284 14.0228 6.34287 13.8399 6.16005C13.6572 5.97727 13.6572 5.67987 13.8399 5.49705C14.0232 5.3138 14.3197 5.3138 14.5029 5.49705C14.6862 5.6803 14.6862 5.9768 14.5029 6.16005Z" fill="#1F3778"/>
</g>
</g>
</svg>
