<svg width="20" height="20" viewBox="0 0 20 20" fill="none" xmlns="http://www.w3.org/2000/svg">
<g id="Frame">
<g id="Group">
<path id="Vector" d="M15.6569 4.34313C14.1459 2.83219 12.1368 2 10 2C7.86316 2 5.85413 2.83216 4.34313 4.34313C2.83219 5.85413 2 7.86316 2 10C2 12.1368 2.83216 14.1459 4.34313 15.6569C5.85413 17.1678 7.86316 18 10 18C12.1368 18 14.1459 17.1678 15.6569 15.6569C17.1678 14.1459 18 12.1368 18 10C18 7.86316 17.1678 5.85413 15.6569 4.34313ZM5.47203 15.4155C5.73622 13.1426 7.69044 11.3877 10 11.3877C11.2175 11.3877 12.3624 11.8621 13.2236 12.7232C13.9512 13.4508 14.41 14.4009 14.5281 15.4154C13.3013 16.4429 11.7217 17.0625 10 17.0625C8.27831 17.0625 6.69884 16.443 5.47203 15.4155ZM10 10.4221C8.66028 10.4221 7.57019 9.33203 7.57019 7.99231C7.57019 6.65247 8.66031 5.5625 10 5.5625C11.3397 5.5625 12.4298 6.65247 12.4298 7.99231C12.4298 9.33203 11.3397 10.4221 10 10.4221V10.4221ZM15.335 14.6229C15.0941 13.6529 14.5933 12.7669 13.8865 12.0603C13.3103 11.4841 12.6287 11.0519 11.8853 10.781C12.7789 10.1749 13.3673 9.151 13.3673 7.99231C13.3673 6.13562 11.8567 4.625 10 4.625C8.14331 4.625 6.63269 6.13562 6.63269 7.99231C6.63269 9.15162 7.22156 10.1759 8.11597 10.7819C7.432 11.0311 6.79909 11.4165 6.25453 11.9238C5.46594 12.6582 4.91834 13.5946 4.66444 14.6222C3.58913 13.3826 2.9375 11.766 2.9375 10C2.9375 6.10572 6.10572 2.9375 10 2.9375C13.8943 2.9375 17.0625 6.10572 17.0625 10C17.0625 11.7663 16.4106 13.3833 15.335 14.6229Z" fill="#1F3778"/>
</g>
</g>
</svg>
