<svg width="24" height="24" viewBox="0 0 24 24" fill="none" xmlns="http://www.w3.org/2000/svg">
<path d="M21 3.95851C21 2.3361 19.6596 1 18.0319 1H10.4681C9.70213 1 8.93617 1.28631 8.45745 1.85892L3.95745 6.05809C3.38298 6.53527 3 7.39419 3 8.25311V21.0415C3 22.6639 4.34043 24 5.96809 24H18.0319C19.6596 24 21 22.6639 21 21.0415V3.95851ZM4.91489 8.15768C4.91489 7.87137 5.10638 7.58506 5.29787 7.39419L9.70213 3.19502C9.79787 3.09959 10.0851 2.90871 10.4681 2.90871H10.5638V6.53527C10.5638 7.48963 9.79787 8.34855 8.74468 8.34855L4.91489 8.15768ZM17.8404 15.9834L14.2021 20.0871C14.0106 20.278 13.7234 20.3734 13.5319 20.3734H13.4362C13.1489 20.3734 12.8617 20.1826 12.6702 19.9917L10.6596 16.9378L7.59575 20.1826C7.21277 20.5643 6.6383 20.5643 6.25532 20.1826C5.87234 19.8008 5.87234 19.2282 6.25532 18.8465L10.1809 14.7427C10.3723 14.5519 10.6596 14.4564 10.9468 14.4564C11.234 14.4564 11.5213 14.6473 11.7128 14.8382L13.7234 17.8921L16.5 14.7427C16.883 14.361 17.4574 14.361 17.8404 14.6473C18.2234 14.9336 18.2234 15.6017 17.8404 15.9834ZM17.5532 10.1618H13.4362C12.8617 10.1618 12.4787 9.78008 12.4787 9.20747C12.4787 8.63486 12.8617 8.25311 13.4362 8.25311H17.5532C18.0319 8.25311 18.5106 8.63486 18.5106 9.20747C18.5106 9.78008 18.1277 10.1618 17.5532 10.1618ZM17.5532 6.3444H13.4362C12.8617 6.3444 12.4787 5.96266 12.4787 5.39004C12.4787 4.81743 12.8617 4.43568 13.4362 4.43568H17.5532C18.0319 4.43568 18.5106 4.81743 18.5106 5.39004C18.5106 5.96266 18.1277 6.3444 17.5532 6.3444Z" fill="white"/>
</svg>
