<svg width="257" height="235" viewBox="0 0 257 235" fill="none" xmlns="http://www.w3.org/2000/svg">
<path d="M186.17 234.999C184.37 234.999 182.54 234.779 180.73 234.299L15.7899 190.129C10.3499 188.619 5.71995 185.029 2.89995 180.139C0.0799453 175.259 -0.710059 169.459 0.699941 163.989L21.5099 86.4193C21.8999 85.0793 22.7899 83.9393 24.0099 83.2493C25.2299 82.5593 26.6699 82.3693 28.0199 82.7293C29.3699 83.0993 30.5299 83.9693 31.2399 85.1793C31.9499 86.3793 32.16 87.8193 31.82 89.1793L11.0199 166.719C9.53994 172.379 12.9299 178.259 18.5899 179.829L183.47 223.979C186.18 224.699 189.08 224.319 191.51 222.909C193.95 221.499 195.72 219.189 196.45 216.469L204.78 185.599C204.96 184.929 205.27 184.289 205.7 183.739C206.13 183.179 206.66 182.709 207.27 182.369C207.88 182.019 208.55 181.789 209.24 181.699C209.93 181.609 210.64 181.649 211.32 181.839C211.99 182.019 212.63 182.329 213.18 182.759C213.74 183.189 214.2 183.719 214.55 184.329C214.9 184.929 215.13 185.599 215.22 186.299C215.31 186.989 215.27 187.699 215.08 188.379L206.76 219.199C205.55 223.739 202.87 227.739 199.15 230.599C195.42 233.459 190.86 234.999 186.17 234.999Z" fill="black"/>
<path d="M234.67 170.998H63.9999C52.2399 170.998 42.6699 161.428 42.6699 149.668V21.6681C42.6699 9.89812 52.2399 0.328125 63.9999 0.328125H234.67C246.43 0.328125 256 9.89812 256 21.6681V149.668C256 161.428 246.43 170.998 234.67 170.998ZM63.9999 10.9981C58.1199 10.9981 53.3299 15.7881 53.3299 21.6681V149.668C53.3299 155.538 58.1199 160.328 63.9999 160.328H234.67C240.54 160.328 245.33 155.538 245.33 149.668V21.6681C245.33 15.7881 240.54 10.9981 234.67 10.9981H63.9999Z" fill="black"/>
<path d="M96 74.9981C84.24 74.9981 74.67 65.4281 74.67 53.6681C74.67 41.8981 84.24 32.3281 96 32.3281C107.76 32.3281 117.33 41.8981 117.33 53.6681C117.33 65.4281 107.76 74.9981 96 74.9981ZM96 42.9981C90.12 42.9981 85.33 47.7881 85.33 53.6681C85.33 59.5381 90.12 64.3281 96 64.3281C101.88 64.3281 106.67 59.5381 106.67 53.6681C106.67 47.7881 101.88 42.9981 96 42.9981ZM48.75 159.588C47.69 159.588 46.66 159.268 45.79 158.688C44.91 158.098 44.23 157.268 43.82 156.298C43.42 155.318 43.31 154.248 43.52 153.218C43.72 152.178 44.23 151.228 44.97 150.488L95.35 100.108C101.39 94.0681 111.94 94.0681 117.97 100.108L132.97 115.108L174.48 65.2881C175.98 63.5081 177.84 62.0681 179.94 61.0681C182.05 60.0781 184.34 59.5481 186.67 59.5281H186.78C189.09 59.5281 191.37 60.0281 193.47 60.9881C195.57 61.9581 197.43 63.3581 198.93 65.1081L254.72 130.198C255.18 130.728 255.54 131.348 255.77 132.018C255.99 132.678 256.08 133.388 256.03 134.088C255.98 134.798 255.79 135.478 255.47 136.108C255.16 136.738 254.72 137.298 254.18 137.758C253.65 138.218 253.03 138.568 252.36 138.788C251.68 139.008 250.98 139.088 250.27 139.028C249.57 138.968 248.89 138.778 248.26 138.448C247.63 138.128 247.08 137.678 246.62 137.138L190.84 72.0581C190.34 71.4681 189.72 70.9981 189.02 70.6781C188.32 70.3581 187.55 70.1981 186.78 70.1981C186.01 70.2181 185.24 70.3981 184.54 70.7281C183.83 71.0581 183.2 71.5381 182.69 72.1181L137.43 126.418C136.96 126.988 136.37 127.458 135.7 127.788C135.04 128.118 134.31 128.298 133.57 128.328C132.83 128.378 132.08 128.258 131.39 127.988C130.7 127.728 130.07 127.308 129.56 126.778L110.43 107.648C109.41 106.688 108.06 106.148 106.66 106.148C105.26 106.148 103.91 106.688 102.89 107.648L52.51 158.028C52.02 158.518 51.43 158.918 50.79 159.178C50.14 159.448 49.45 159.588 48.75 159.588Z" fill="black"/>
</svg>
