<svg width="14" height="18" viewBox="0 0 14 18" fill="none" xmlns="http://www.w3.org/2000/svg">
<g id="Group">
<path id="Vector" d="M7 7.5C8.65685 7.5 10 6.15685 10 4.5C10 2.84315 8.65685 1.5 7 1.5C5.34315 1.5 4 2.84315 4 4.5C4 6.15685 5.34315 7.5 7 7.5Z" stroke="#777777" stroke-width="1.5"/>
<path id="Vector_2" d="M12.9977 13.5C13 13.377 13 13.2517 13 13.125C13 11.2613 10.3135 9.75 7 9.75C3.6865 9.75 1 11.2613 1 13.125C1 14.9887 1 16.5 7 16.5C8.67325 16.5 9.88 16.3822 10.75 16.1722" stroke="#777777" stroke-width="1.5" stroke-linecap="round"/>
</g>
</svg>
