<svg width="24" height="24" viewBox="0 0 24 24" fill="none" xmlns="http://www.w3.org/2000/svg">
<path d="M12.0003 16.9219C14.9691 16.9219 17.385 14.7136 17.385 12C17.385 9.28641 14.9691 7.07812 12.0003 7.07812C9.03162 7.07812 6.61572 9.28641 6.61572 12C6.61572 14.7136 9.03162 16.9219 12.0003 16.9219ZM9.46726 11.5029L11.2311 13.1151L14.5334 10.0966L15.6211 11.0909L11.2311 15.1036L8.37957 12.4971L9.46726 11.5029Z" fill="white"/>
<path d="M12 24C12.1538 23.8821 22 21.5456 22 12V2.8125H19.4287C14.1299 2.8125 12.3629 0.188063 12 0C11.6564 0.177984 9.84236 2.8125 4.57128 2.8125H2V12C2 21.5453 11.8462 23.8821 12 24ZM12 5.625C15.8175 5.625 18.9231 8.51058 18.9231 12C18.9231 15.4894 15.8175 18.3281 12 18.3281C8.18251 18.3281 5.07692 15.4894 5.07692 12C5.07692 8.51058 8.18251 5.625 12 5.625Z" fill="white"/>
</svg>
