<svg width="50" height="51" viewBox="0 0 50 51" fill="none" xmlns="http://www.w3.org/2000/svg">
<g id="Frame">
<g id="Group">
<path id="Vector" d="M29.1383 14.3357C30.9878 15.5069 32.2847 17.489 32.5208 19.7896C33.2963 20.1581 34.1427 20.3496 34.9998 20.3503C38.24 20.3503 40.8662 17.6977 40.8662 14.4254C40.8662 11.1526 38.24 8.5 34.9998 8.5C31.7905 8.50101 29.1872 11.1062 29.1383 14.3357ZM25.295 26.4678C28.5353 26.4678 31.1615 23.8147 31.1615 20.5424C31.1615 17.2701 28.5348 14.6175 25.295 14.6175C22.0553 14.6175 19.4276 17.2706 19.4276 20.5429C19.4276 23.8152 22.0553 26.4678 25.295 26.4678ZM27.7835 26.8717H22.8056C18.6638 26.8717 15.2943 30.2756 15.2943 34.459V40.6077L15.3097 40.704L15.7291 40.8366C19.6816 42.084 23.1156 42.5 25.942 42.5C31.4625 42.5 34.6623 40.9102 34.8595 40.8089L35.2513 40.6087H35.2933V34.459C35.2948 30.2756 31.9252 26.8717 27.7835 26.8717ZM37.4892 20.7547H32.5497C32.4996 22.6811 31.6975 24.5094 30.3184 25.8411C33.9999 26.9468 36.6935 30.3951 36.6935 34.468V36.3628C41.5706 36.1823 44.381 34.7862 44.5662 34.6924L44.9581 34.4917H45V28.3409C45 24.1581 41.6305 20.7547 37.4892 20.7547ZM15.0012 20.3513C16.1489 20.3513 17.2166 20.013 18.1212 19.4367C18.405 17.5825 19.3817 15.9086 20.8502 14.7597C20.8562 14.6488 20.8667 14.5389 20.8667 14.4269C20.8667 11.1541 18.24 8.50151 15.0012 8.50151C11.7605 8.50151 9.13478 11.1541 9.13478 14.4269C9.13478 17.6982 11.7605 20.3513 15.0012 20.3513ZM20.2697 25.8411C18.8982 24.5158 18.0974 22.6992 18.0398 20.7829C17.8566 20.7693 17.6754 20.7547 17.4887 20.7547H12.5113C8.36952 20.7547 5 24.1581 5 28.3409V34.4907L5.01547 34.5855L5.43479 34.7191C8.60564 35.719 11.4355 36.1798 13.8935 36.325V34.468C13.8945 30.3951 16.5872 26.9478 20.2697 25.8411Z" fill="#E39D02"/>
</g>
</g>
</svg>
