<svg width="16" height="16" viewBox="0 0 16 16" fill="none" xmlns="http://www.w3.org/2000/svg">
<g clip-path="url(#clip0_264_8766)">
<path d="M8.11998 10.3201H7.83998C6.55998 10.3201 5.47998 9.28011 5.47998 7.96011V4.72011C5.47998 3.44011 6.51998 2.36011 7.83998 2.36011H8.11998C9.39998 2.36011 10.48 3.40011 10.48 4.72011C10.48 4.96011 10.32 5.12011 10.08 5.12011C9.83998 5.12011 9.67998 4.96011 9.67998 4.72011C9.67998 3.88011 8.99998 3.16011 8.11998 3.16011H7.83998C6.99998 3.16011 6.27998 3.84011 6.27998 4.72011V7.96011C6.27998 8.80011 6.95998 9.52011 7.83998 9.52011H8.11998C8.95998 9.52011 9.67998 8.84011 9.67998 7.96011V6.60011C9.67998 6.36011 9.83998 6.20011 10.08 6.20011C10.32 6.20011 10.48 6.36011 10.48 6.60011V7.96011C10.48 9.28011 9.43998 10.3201 8.11998 10.3201Z" fill="white"/>
<path d="M8 0.0400391C3.6 0.0400391 0 3.64004 0 8.04004C0 12.44 3.6 16.04 8 16.04C12.4 16.04 16 12.44 16 8.04004C16 3.64004 12.4 0.0400391 8 0.0400391ZM8 15.24C4.04 15.24 0.8 12 0.8 8.04004C0.8 4.08004 4.04 0.840039 8 0.840039C11.96 0.840039 15.2 4.08004 15.2 8.04004C15.2 12 11.96 15.24 8 15.24Z" fill="white"/>
<path d="M8.39998 11.9201V12.9601H9.59998C9.79998 12.9601 9.99998 13.1201 9.99998 13.3601C9.99998 13.6001 9.79998 13.7601 9.59998 13.7601H6.39998C6.19998 13.7601 5.99998 13.6001 5.99998 13.3601C5.99998 13.1201 6.19998 12.9601 6.39998 12.9601H7.59998V11.9201C5.55998 11.8001 3.91998 10.0801 3.91998 7.96006C3.91998 7.72006 4.11998 7.56006 4.31998 7.56006C4.55998 7.56006 4.71998 7.72006 4.71998 7.96006C4.71998 9.68006 6.11998 11.1201 7.87998 11.1201H8.15998C9.91998 11.1201 11.32 9.72006 11.32 7.96006C11.32 7.72006 11.52 7.56006 11.72 7.56006C11.92 7.56006 12.12 7.72006 12.12 7.96006C12.08 10.0401 10.44 11.7601 8.39998 11.9201Z" fill="white"/>
</g>
<defs>
<clipPath id="clip0_264_8766">
<rect width="16" height="16" fill="white"/>
</clipPath>
</defs>
</svg>
